<?xml version="1.0" encoding="UTF-8" standalone="no"?>
<svg
   xmlns:dc="http://purl.org/dc/elements/1.1/"
   xmlns:cc="http://creativecommons.org/ns#"
   xmlns:rdf="http://www.w3.org/1999/02/22-rdf-syntax-ns#"
   xmlns:svg="http://www.w3.org/2000/svg"
   xmlns="http://www.w3.org/2000/svg"
   xmlns:xlink="http://www.w3.org/1999/xlink"
   xmlns:sodipodi="http://sodipodi.sourceforge.net/DTD/sodipodi-0.dtd"
   xmlns:inkscape="http://www.inkscape.org/namespaces/inkscape"
   width="1000"
   height="455"
   viewBox="0 0 1000 455"
   fill="none"
   version="1.1"
   id="svg158"
   sodipodi:docname="header-background.svg"
   inkscape:version="1.0.2 (e86c870879, 2021-01-15, custom)">
  <metadata
     id="metadata164">
    <rdf:RDF>
      <cc:Work
         rdf:about="">
        <dc:format>image/svg+xml</dc:format>
        <dc:type
           rdf:resource="http://purl.org/dc/dcmitype/StillImage" />
      </cc:Work>
    </rdf:RDF>
  </metadata>
  <defs
     id="defs162">
    <linearGradient
       inkscape:collect="always"
       xlink:href="#linearGradient6359"
       id="linearGradient6353"
       gradientUnits="userSpaceOnUse"
       x1="-39.511913"
       y1="111.56304"
       x2="-42.998257"
       y2="24.404415"
       gradientTransform="matrix(0.57574366,0,0,0.57574366,211.21442,197.1465)" />
    <linearGradient
       inkscape:collect="always"
       id="linearGradient6359">
      <stop
         style="stop-color:#007f3a;stop-opacity:1"
         offset="0"
         id="stop6355" />
      <stop
         style="stop-color:#00c359;stop-opacity:0.86274511"
         offset="1"
         id="stop6357" />
    </linearGradient>
    <linearGradient
       inkscape:collect="always"
       xlink:href="#linearGradient6359"
       id="linearGradient1059"
       gradientUnits="userSpaceOnUse"
       x1="-39.511913"
       y1="111.56304"
       x2="-42.998257"
       y2="24.404415"
       gradientTransform="matrix(0.57574366,0,0,0.57574366,211.21442,197.1465)" />
    <linearGradient
       inkscape:collect="always"
       xlink:href="#linearGradient6359"
       id="linearGradient1061"
       gradientUnits="userSpaceOnUse"
       x1="-39.511913"
       y1="111.56304"
       x2="-42.998257"
       y2="24.404415"
       gradientTransform="matrix(0.57574366,0,0,0.57574366,211.21442,197.1465)" />
    <linearGradient
       inkscape:collect="always"
       xlink:href="#linearGradient6359"
       id="linearGradient1063"
       gradientUnits="userSpaceOnUse"
       x1="-39.511913"
       y1="111.56304"
       x2="-42.998257"
       y2="24.404415"
       gradientTransform="matrix(0.57574366,0,0,0.57574366,211.21442,197.1465)" />
    <linearGradient
       inkscape:collect="always"
       xlink:href="#linearGradient6359"
       id="linearGradient1065"
       gradientUnits="userSpaceOnUse"
       x1="-39.511913"
       y1="111.56304"
       x2="-42.998257"
       y2="24.404415"
       gradientTransform="matrix(0.57574366,0,0,0.57574366,211.21442,197.1465)" />
    <linearGradient
       inkscape:collect="always"
       xlink:href="#linearGradient6359"
       id="linearGradient1067"
       gradientUnits="userSpaceOnUse"
       x1="-39.511913"
       y1="111.56304"
       x2="-42.998257"
       y2="24.404415"
       gradientTransform="matrix(0.57574366,0,0,0.57574366,211.21442,197.1465)" />
    <linearGradient
       inkscape:collect="always"
       xlink:href="#linearGradient6359"
       id="linearGradient1069"
       gradientUnits="userSpaceOnUse"
       x1="-39.511913"
       y1="111.56304"
       x2="-42.998257"
       y2="24.404415"
       gradientTransform="matrix(0.57574366,0,0,0.57574366,211.21442,197.1465)" />
    <linearGradient
       inkscape:collect="always"
       xlink:href="#linearGradient6359"
       id="linearGradient1071"
       gradientUnits="userSpaceOnUse"
       x1="-39.511913"
       y1="111.56304"
       x2="-42.998257"
       y2="24.404415"
       gradientTransform="matrix(0.57574366,0,0,0.57574366,211.21442,197.1465)" />
    <linearGradient
       inkscape:collect="always"
       xlink:href="#linearGradient6359"
       id="linearGradient1073"
       gradientUnits="userSpaceOnUse"
       x1="-39.511913"
       y1="111.56304"
       x2="-42.998257"
       y2="24.404415"
       gradientTransform="matrix(0.57574366,0,0,0.57574366,211.21442,197.1465)" />
    <linearGradient
       inkscape:collect="always"
       xlink:href="#linearGradient6359"
       id="linearGradient1075"
       gradientUnits="userSpaceOnUse"
       x1="-39.511913"
       y1="111.56304"
       x2="-42.998257"
       y2="24.404415"
       gradientTransform="matrix(0.57574366,0,0,0.57574366,211.21442,197.1465)" />
  </defs>
  <sodipodi:namedview
     pagecolor="#ffffff"
     bordercolor="#666666"
     borderopacity="1"
     objecttolerance="10"
     gridtolerance="10"
     guidetolerance="10"
     inkscape:pageopacity="0"
     inkscape:pageshadow="2"
     inkscape:window-width="1727"
     inkscape:window-height="844"
     id="namedview160"
     showgrid="false"
     inkscape:zoom="0.8605"
     inkscape:cx="489.72656"
     inkscape:cy="204.88718"
     inkscape:window-x="0"
     inkscape:window-y="0"
     inkscape:window-maximized="0"
     inkscape:current-layer="svg158" />
  <path
     d="M844.348 306.957L780.435 371.304"
     stroke="#00B050"
     stroke-width="2"
     id="path2"
     inkscape:export-xdpi="42.851223"
     inkscape:export-ydpi="42.851223" />
  <circle
     r="29.4348"
     transform="matrix(0 1 1 0 865.217 288.696)"
     fill="white"
     stroke="#00B050"
     stroke-width="2"
     id="circle4"
     inkscape:export-xdpi="42.851223"
     inkscape:export-ydpi="42.851223" />
  <circle
     r="29.4348"
     transform="matrix(0 1 1 0 969.565 393.043)"
     fill="white"
     stroke="#00B050"
     stroke-width="2"
     id="circle6"
     inkscape:export-xdpi="42.851223"
     inkscape:export-ydpi="42.851223" />
  <path
     d="M418.261 395.652H372.174"
     stroke="#00B050"
     stroke-width="2"
     id="path8"
     inkscape:export-xdpi="42.851223"
     inkscape:export-ydpi="42.851223" />
  <circle
     cx="447.826"
     cy="393.043"
     r="29.4348"
     fill="white"
     stroke="#00B050"
     stroke-width="2"
     id="circle10"
     inkscape:export-xdpi="42.851223"
     inkscape:export-ydpi="42.851223" />
  <path
     d="M576.522 410.435L605.652 439.565"
     stroke="#FF2D2D"
     stroke-width="2"
     id="path12"
     inkscape:export-xdpi="42.851223"
     inkscape:export-ydpi="42.851223" />
  <circle
     cx="552.174"
     cy="393.043"
     r="30.4348"
     fill="#FF2D2D"
     id="circle14"
     inkscape:export-xdpi="42.851223"
     inkscape:export-ydpi="42.851223" />
  <path
     d="M560.872 391.406L559.343 388.673L553.021 394.995L555.754 396.524C555.904 396.607 556.068 396.648 556.23 396.648C556.483 396.648 556.733 396.55 556.92 396.362L560.71 392.572C561.019 392.264 561.085 391.787 560.872 391.406Z"
     fill="white"
     id="path16"
     inkscape:export-xdpi="42.851223"
     inkscape:export-ydpi="42.851223" />
  <path
     d="M548.061 377.237C547.878 377.054 547.63 376.951 547.371 376.951C547.113 376.951 546.865 377.054 546.682 377.237L544.999 378.92L544.026 377.947L544.24 377.734C544.716 377.258 544.716 376.486 544.24 376.009C543.763 375.533 542.991 375.533 542.515 376.009L540.357 378.167C539.881 378.643 539.881 379.415 540.357 379.892C540.595 380.13 540.907 380.249 541.22 380.249C541.532 380.249 541.844 380.13 542.082 379.892L542.301 379.672L543.274 380.645L541.585 382.334C541.204 382.715 541.204 383.332 541.585 383.713L541.853 383.981C542.767 383.175 543.966 382.684 545.278 382.684C548.136 382.684 550.462 385.009 550.462 387.868C550.462 389.18 549.971 390.378 549.164 391.293L551.564 393.692L558.04 387.216L548.061 377.237Z"
     fill="white"
     id="path18"
     inkscape:export-xdpi="42.851223"
     inkscape:export-ydpi="42.851223" />
  <path
     d="M564.508 394.975C564.032 394.499 563.26 394.498 562.783 394.974L558.149 399.611L557.17 400.597H556.722H555.603V399.32C555.603 397.476 554.136 395.963 552.293 395.963H551.963C551.752 395.963 551.546 395.99 551.346 396.028C550.412 396.203 549.613 396.77 549.127 397.549C547.776 396.381 546.855 394.732 546.632 392.869C546.2 392.986 545.746 393.051 545.278 393.051C544.903 393.051 544.534 393.01 544.181 392.934C544.474 395.983 546.172 398.629 548.611 400.214V403.524H555.603V403.036H557.675V403.036C557.998 403.036 558.308 402.9 558.537 402.671L564.507 396.702C564.983 396.226 564.984 395.452 564.508 394.975Z"
     fill="white"
     id="path20"
     inkscape:export-xdpi="42.851223"
     inkscape:export-ydpi="42.851223" />
  <path
     d="M545.381 383.645C543.052 383.645 541.158 385.539 541.158 387.867C541.158 390.196 543.052 392.09 545.381 392.09C547.709 392.09 549.603 390.196 549.603 387.867C549.603 385.539 547.709 383.645 545.381 383.645Z"
     fill="white"
     id="path22"
     inkscape:export-xdpi="42.851223"
     inkscape:export-ydpi="42.851223" />
  <path
     d="M557.658 404.337H556.605H553.197H551.059H547.65H546.598C543.918 404.337 541.739 406.527 541.739 409.206C541.739 409.879 542.285 410.435 542.958 410.435H561.297C561.971 410.435 562.517 409.879 562.517 409.206C562.517 406.526 560.337 404.337 557.658 404.337Z"
     fill="white"
     id="path24"
     inkscape:export-xdpi="42.851223"
     inkscape:export-ydpi="42.851223" />
  <circle
     cx="760.87"
     cy="393.043"
     r="30.4348"
     fill="#00B050"
     id="circle26"
     inkscape:export-xdpi="42.851223"
     inkscape:export-ydpi="42.851223" />
  <path
     d="M748.641 391.957C749.463 391.957 750.208 391.627 750.757 391.097L753.774 392.605C753.759 392.728 753.736 392.849 753.736 392.976C753.736 394.661 755.108 396.033 756.793 396.033C758.479 396.033 759.851 394.661 759.851 392.976C759.851 392.505 759.735 392.065 759.544 391.666L763.636 387.574C764.035 387.765 764.475 387.88 764.946 387.88C766.631 387.88 768.003 386.509 768.003 384.823C768.003 384.506 767.94 384.206 767.85 383.918L771.406 381.252C771.891 381.576 772.472 381.766 773.098 381.766C774.783 381.766 776.155 380.395 776.155 378.709C776.155 377.024 774.783 375.652 773.098 375.652C771.412 375.652 770.041 377.024 770.041 378.709C770.041 379.027 770.103 379.327 770.193 379.615L766.638 382.281C766.153 381.957 765.571 381.766 764.946 381.766C763.26 381.766 761.889 383.138 761.889 384.823C761.889 385.294 762.004 385.734 762.195 386.133L758.103 390.225C757.704 390.034 757.264 389.918 756.793 389.918C755.971 389.918 755.227 390.248 754.677 390.778L751.661 389.27C751.676 389.147 751.698 389.026 751.698 388.899C751.698 387.214 750.327 385.842 748.641 385.842C746.956 385.842 745.584 387.214 745.584 388.899C745.584 390.585 746.956 391.957 748.641 391.957Z"
     fill="white"
     id="path28"
     inkscape:export-xdpi="42.851223"
     inkscape:export-ydpi="42.851223" />
  <path
     d="M777.242 408.397H776.155V386.861C776.155 386.298 775.699 385.842 775.136 385.842H771.06C770.497 385.842 770.041 386.298 770.041 386.861V408.397H768.003V392.976C768.003 392.412 767.547 391.957 766.984 391.957H762.908C762.345 391.957 761.889 392.412 761.889 392.976V408.397H759.851V401.128C759.851 400.565 759.395 400.109 758.832 400.109H754.755C754.192 400.109 753.736 400.565 753.736 401.128V408.397H751.698V397.052C751.698 396.489 751.242 396.033 750.679 396.033H746.603C746.04 396.033 745.584 396.489 745.584 397.052V408.397H744.497C743.934 408.397 743.478 408.853 743.478 409.416C743.478 409.979 743.934 410.435 744.497 410.435H777.242C777.805 410.435 778.261 409.979 778.261 409.416C778.261 408.853 777.805 408.397 777.242 408.397Z"
     fill="white"
     id="path30"
     inkscape:export-xdpi="42.851223"
     inkscape:export-ydpi="42.851223" />
  <path
     d="M343.478 420.87V450.435"
     stroke="#00B050"
     stroke-width="2"
     id="path32"
     inkscape:export-xdpi="42.851223"
     inkscape:export-ydpi="42.851223" />
  <circle
     cx="343.478"
     cy="393.043"
     r="30.4348"
     fill="#00B050"
     id="circle34"
     inkscape:export-xdpi="42.851223"
     inkscape:export-ydpi="42.851223" />
  <path
     d="M334.726 395.199L337.81 391.928C338.229 391.483 338.279 390.771 337.924 390.272L337.6 389.816C337.384 389.511 337.052 389.336 336.691 389.336C336.386 389.336 336.098 389.462 335.88 389.69L331.416 394.352C330.968 394.819 330.968 395.579 331.415 396.045L335.88 400.707C336.098 400.935 336.386 401.061 336.691 401.061C337.052 401.061 337.384 400.886 337.6 400.582L337.924 400.125C338.279 399.627 338.229 398.915 337.81 398.47L334.726 395.199Z"
     fill="white"
     id="path36"
     inkscape:export-xdpi="42.851223"
     inkscape:export-ydpi="42.851223" />
  <path
     d="M345.686 389.018H345.087C344.511 389.018 343.955 389.42 343.766 389.964L340.295 399.948C340.176 400.29 340.221 400.672 340.418 400.95C340.615 401.227 340.937 401.412 341.299 401.412H341.898C342.474 401.412 343.03 400.993 343.219 400.449L346.69 390.457C346.809 390.115 346.764 389.746 346.567 389.468C346.37 389.19 346.049 389.018 345.686 389.018Z"
     fill="white"
     id="path38"
     inkscape:export-xdpi="42.851223"
     inkscape:export-ydpi="42.851223" />
  <path
     d="M351.106 389.69C350.888 389.462 350.599 389.336 350.295 389.336C349.933 389.336 349.602 389.511 349.386 389.816L349.061 390.272C348.707 390.771 348.756 391.483 349.176 391.927L352.26 395.199L349.176 398.47C348.756 398.915 348.707 399.626 349.061 400.125L349.386 400.581C349.602 400.886 349.933 401.061 350.294 401.061H350.295C350.599 401.061 350.887 400.935 351.106 400.707L355.57 396.045C356.017 395.579 356.017 394.819 355.57 394.352L351.106 389.69Z"
     fill="white"
     id="path40"
     inkscape:export-xdpi="42.851223"
     inkscape:export-ydpi="42.851223" />
  <path
     d="M357.987 377.391H328.969C327.38 377.391 326.087 378.684 326.087 380.274V406.121C326.087 407.71 327.38 409.003 328.969 409.003H357.987C359.576 409.003 360.87 407.71 360.87 406.121V380.274C360.87 378.684 359.576 377.391 357.987 377.391ZM337.409 380.215C337.955 380.215 338.397 380.657 338.397 381.202C338.397 381.748 337.955 382.19 337.409 382.19C336.864 382.19 336.422 381.748 336.422 381.202C336.422 380.657 336.864 380.215 337.409 380.215ZM333.905 380.215C334.451 380.215 334.893 380.657 334.893 381.202C334.893 381.748 334.451 382.19 333.905 382.19C333.36 382.19 332.918 381.748 332.918 381.202C332.918 380.657 333.36 380.215 333.905 380.215ZM330.401 380.215C330.947 380.215 331.389 380.657 331.389 381.202C331.389 381.748 330.947 382.19 330.401 382.19C329.856 382.19 329.414 381.748 329.414 381.202C329.414 380.657 329.856 380.215 330.401 380.215ZM357.987 406.121H328.969V384.213H357.987L357.989 406.121C357.989 406.121 357.988 406.121 357.987 406.121Z"
     fill="white"
     id="path42"
     inkscape:export-xdpi="42.851223"
     inkscape:export-ydpi="42.851223" />
  <circle
     r="30.4348"
     transform="matrix(0 1 1 0 969.565 288.696)"
     fill="#00B050"
     id="circle44"
     inkscape:export-xdpi="42.851223"
     inkscape:export-ydpi="42.851223" />
  <path
     d="M985.474 300.453C986.445 298.761 986.957 296.844 986.957 294.878C986.957 288.697 981.928 283.668 975.747 283.668C969.567 283.668 964.538 288.697 964.538 294.878C964.538 301.058 969.567 306.087 975.747 306.087C977.712 306.087 979.627 305.576 981.318 304.606L985.615 306.034C985.721 306.07 985.829 306.087 985.938 306.087C986.203 306.087 986.464 305.982 986.658 305.788C986.931 305.516 987.026 305.112 986.904 304.746L985.474 300.453ZM976.766 299.785V300.91C976.766 301.474 976.31 301.929 975.747 301.929C975.184 301.929 974.728 301.474 974.728 300.91V299.774C974.056 299.533 973.467 299.08 973.1 298.445C972.818 297.958 972.985 297.335 973.472 297.053C973.96 296.768 974.583 296.937 974.864 297.424C975.046 297.74 975.384 297.935 975.747 297.935C976.31 297.935 976.766 297.478 976.766 296.916C976.766 296.353 976.31 295.897 975.747 295.897C974.062 295.897 972.69 294.525 972.69 292.84C972.69 291.513 973.545 290.392 974.728 289.97V288.804C974.728 288.241 975.184 287.785 975.747 287.785C976.31 287.785 976.766 288.241 976.766 288.804V289.982C977.439 290.222 978.028 290.675 978.394 291.31C978.677 291.798 978.51 292.421 978.023 292.702C977.532 292.985 976.912 292.817 976.631 292.331C976.449 292.016 976.111 291.821 975.747 291.821C975.185 291.821 974.728 292.277 974.728 292.84C974.728 293.402 975.185 293.859 975.747 293.859C977.433 293.859 978.804 295.23 978.804 296.916C978.804 298.243 977.95 299.363 976.766 299.785Z"
     fill="white"
     id="path46"
     inkscape:export-xdpi="42.851223"
     inkscape:export-ydpi="42.851223" />
  <path
     d="M965.421 284.552C965.421 283.989 965.877 283.533 966.44 283.533C966.949 283.533 967.352 283.912 967.428 284.4C969.424 282.817 971.857 281.765 974.544 281.549C974.052 275.819 969.238 271.304 963.383 271.304C957.202 271.304 952.174 276.333 952.174 282.514C952.174 284.48 952.685 286.396 953.657 288.088L952.227 292.381C952.104 292.748 952.2 293.152 952.472 293.424C952.666 293.618 952.927 293.723 953.193 293.723C953.3 293.723 953.41 293.706 953.515 293.67L957.812 292.242C959.22 293.05 960.808 293.491 962.42 293.633C962.683 290.481 964.064 287.65 966.151 285.512C965.732 285.385 965.421 285.012 965.421 284.552ZM960.326 277.418C960.889 277.418 961.345 277.875 961.345 278.438C961.345 279 960.889 279.457 960.326 279.457C959.763 279.457 959.307 279 959.307 278.438C959.307 277.875 959.763 277.418 960.326 277.418ZM961.047 285.272C960.848 285.471 960.587 285.571 960.326 285.571C960.065 285.571 959.805 285.471 959.606 285.272C959.208 284.874 959.208 284.229 959.606 283.831L965.72 277.717C966.118 277.319 966.763 277.319 967.161 277.717C967.559 278.115 967.559 278.76 967.161 279.158L961.047 285.272Z"
     fill="white"
     id="path48"
     inkscape:export-xdpi="42.851223"
     inkscape:export-ydpi="42.851223" />
  <circle
     r="29.4348"
     transform="matrix(0 1 1 0 134.783 393.043)"
     fill="white"
     stroke="#FF2D2D"
     stroke-width="2"
     id="circle50"
     inkscape:export-xdpi="42.851223"
     inkscape:export-ydpi="42.851223" />
  <path
     d="M134.783 422.609V437.826C134.783 443.349 130.305 447.826 124.783 447.826H56.9565"
     stroke="#FF2D2D"
     stroke-width="2"
     id="path52"
     inkscape:export-xdpi="42.851223"
     inkscape:export-ydpi="42.851223" />
  <circle
     r="30.4348"
     transform="matrix(0 1 1 0 30.4348 393.043)"
     fill="#00B050"
     id="circle54"
     inkscape:export-xdpi="42.851223"
     inkscape:export-ydpi="42.851223" />
  <path
     d="M47.8241 403.603V383.728C47.8241 383.385 47.546 383.107 47.2031 383.107H40.3214C40.2598 383.538 40.1331 383.957 39.9457 384.349H46.582V401.74H14.2856V384.349H20.7139C20.5711 383.951 20.4977 383.531 20.4965 383.107H13.6645C13.3215 383.107 13.0435 383.385 13.0435 383.728V403.603C13.0435 403.946 13.3215 404.224 13.6645 404.224H47.2031C47.546 404.224 47.8241 403.946 47.8241 403.603Z"
     fill="white"
     id="path56"
     inkscape:export-xdpi="42.851223"
     inkscape:export-ydpi="42.851223" />
  <path
     d="M29.1918 405.466H31.6761V407.951H29.1918V405.466Z"
     fill="white"
     id="path58"
     inkscape:export-xdpi="42.851223"
     inkscape:export-ydpi="42.851223" />
  <path
     d="M24.2231 386.834C23.165 386.833 22.1576 386.381 21.4531 385.592H15.528V400.498H45.34V385.592H39.1291V385.523C38.3137 386.361 37.1934 386.834 36.0237 386.834C35.6807 386.834 35.4026 386.556 35.4026 386.213C35.4026 385.87 35.6807 385.592 36.0237 385.592C37.2692 385.589 38.3931 384.843 38.8783 383.696C39.3639 382.549 39.117 381.223 38.2512 380.328C37.3857 379.432 36.0686 379.141 34.9059 379.587C34.7354 379.654 34.5438 379.641 34.3834 379.553C34.2229 379.465 34.1095 379.311 34.0728 379.132C33.627 376.944 31.597 375.45 29.3756 375.675C27.1545 375.899 25.4644 377.769 25.4653 380.002V380.064C25.4653 380.252 25.3801 380.43 25.2336 380.548C25.0868 380.666 24.8945 380.711 24.7108 380.671C24.5503 380.637 24.3869 380.621 24.2231 380.623C22.8512 380.623 21.7388 381.735 21.7388 383.107C21.7388 384.479 22.8512 385.592 24.2231 385.592C24.5661 385.592 24.8442 385.87 24.8442 386.213C24.8442 386.556 24.5661 386.834 24.2231 386.834ZM32.9183 381.608L35.8418 384.531L34.9635 385.41L33.5394 383.985V390.56H32.2972V383.985L30.8731 385.41L29.9948 384.531L32.9183 381.608ZM25.2833 387.637L26.7075 389.061V382.486H27.9496V389.061L29.3737 387.637L30.252 388.515L27.3285 391.438L24.4051 388.515L25.2833 387.637Z"
     fill="white"
     id="path60"
     inkscape:export-xdpi="42.851223"
     inkscape:export-ydpi="42.851223" />
  <path
     d="M23.6019 409.814V410.435H37.2658V409.814C37.2658 409.471 36.9877 409.193 36.6447 409.193H24.223C23.88 409.193 23.6019 409.471 23.6019 409.814Z"
     fill="white"
     id="path62"
     inkscape:export-xdpi="42.851223"
     inkscape:export-ydpi="42.851223" />
  <path
     d="M29.5651 153.914L29.5651 109.565"
     stroke="#00B050"
     stroke-width="2"
     id="path64"
     inkscape:export-xdpi="42.851223"
     inkscape:export-ydpi="42.851223" />
  <path
     d="M105.218 184.348L60.8696 184.588"
     stroke="#00B050"
     stroke-width="2"
     id="path66"
     inkscape:export-xdpi="42.851223"
     inkscape:export-ydpi="42.851223" />
  <circle
     r="30.4348"
     transform="matrix(0 1 1 0 134.783 288.696)"
     fill="#00B050"
     id="circle68"
     inkscape:export-xdpi="42.851223"
     inkscape:export-ydpi="42.851223" />
  <path
     fill-rule="evenodd"
     clip-rule="evenodd"
     d="M150.848 283.516C150.848 285.721 149.061 287.508 146.856 287.508C144.651 287.508 142.864 285.721 142.864 283.516C142.864 281.312 144.651 279.524 146.856 279.524C149.061 279.524 150.848 281.312 150.848 283.516Z"
     fill="white"
     id="path70"
     inkscape:export-xdpi="42.851223"
     inkscape:export-ydpi="42.851223" />
  <path
     fill-rule="evenodd"
     clip-rule="evenodd"
     d="M132.047 298.41C132.047 298.973 132.503 299.429 133.066 299.429C133.629 299.429 134.085 298.973 134.085 298.41V296.644H132.047V298.41Z"
     fill="white"
     id="path72"
     inkscape:export-xdpi="42.851223"
     inkscape:export-ydpi="42.851223" />
  <path
     fill-rule="evenodd"
     clip-rule="evenodd"
     d="M142.234 287.387C141.848 286.924 141.527 286.395 141.287 285.815C140.675 284.337 140.675 282.696 141.287 281.218C142.376 278.589 145.156 277.066 147.944 277.588V272.323C147.944 271.761 147.487 271.304 146.925 271.304H119.28C118.717 271.304 118.261 271.761 118.261 272.323V293.587C118.261 294.15 118.713 294.606 119.275 294.606H139.929C139.927 293.54 139.922 292.475 139.922 291.409C139.922 290.165 140.427 288.982 141.305 288.104C141.58 287.829 141.892 287.588 142.234 287.387ZM139.593 280.16L136.378 283.375C135.98 283.773 135.335 283.773 134.937 283.375L132.323 280.762L126.834 286.251C126.436 286.649 125.791 286.649 125.393 286.251L123.605 284.463L121.97 286.098C121.572 286.495 120.927 286.495 120.53 286.098C120.131 285.7 120.131 285.055 120.53 284.657L122.885 282.301C123.283 281.904 123.928 281.904 124.326 282.301L126.113 284.089L131.603 278.6C132 278.202 132.646 278.202 133.044 278.6L135.657 281.214L138.152 278.719C138.55 278.321 139.195 278.321 139.593 278.719C139.991 279.117 139.991 279.762 139.593 280.16Z"
     fill="white"
     id="path74"
     inkscape:export-xdpi="42.851223"
     inkscape:export-ydpi="42.851223" />
  <path
     fill-rule="evenodd"
     clip-rule="evenodd"
     d="M150.95 289.55C150.464 289.074 149.8 288.778 149.087 288.777C148.961 288.777 145.295 288.774 144.599 288.774C143.174 288.774 141.96 289.986 141.96 291.409L141.972 296.652C141.973 297.3 142.206 297.894 142.593 298.352C142.797 298.594 143.043 298.799 143.321 298.954L143.324 304.978C143.321 305.008 143.32 305.038 143.32 305.068C143.32 305.631 143.776 306.087 144.339 306.087L149.379 306.083C149.94 306.083 150.394 305.628 150.394 305.068L150.391 298.954C150.668 298.798 150.914 298.594 151.118 298.352C151.505 297.894 151.739 297.3 151.74 296.652C151.74 296.652 151.747 291.413 151.747 291.411C151.748 290.689 151.439 290.029 150.95 289.55Z"
     fill="white"
     id="path76"
     inkscape:export-xdpi="42.851223"
     inkscape:export-ydpi="42.851223" />
  <circle
     r="29.4348"
     transform="matrix(0 1 1 0 134.783 184.348)"
     fill="white"
     stroke="#00B050"
     stroke-width="2"
     id="circle78"
     inkscape:export-xdpi="42.851223"
     inkscape:export-ydpi="42.851223" />
  <path
     d="M134.783 213.913V258.261"
     stroke="#00B050"
     stroke-width="2"
     id="path80"
     inkscape:export-xdpi="42.851223"
     inkscape:export-ydpi="42.851223" />
  <circle
     r="29.4348"
     transform="matrix(0 1 1 0 30.4348 184.348)"
     fill="white"
     stroke="#00B050"
     stroke-width="2"
     id="circle82"
     inkscape:export-xdpi="42.851223"
     inkscape:export-ydpi="42.851223" />
  <circle
     cx="30.4348"
     cy="80"
     r="29.4348"
     fill="white"
     stroke="#00B050"
     stroke-width="2"
     id="circle84"
     inkscape:export-xdpi="42.851223"
     inkscape:export-ydpi="42.851223" />
  <path
     d="M221.304 56.5217L187.826 22.6087H74.7826"
     stroke="#00B050"
     stroke-width="2"
     id="path86"
     inkscape:export-xdpi="42.851223"
     inkscape:export-ydpi="42.851223" />
  <circle
     cx="239.13"
     cy="80"
     r="29.4348"
     fill="white"
     stroke="#00B050"
     stroke-width="2"
     id="circle88"
     inkscape:export-xdpi="42.851223"
     inkscape:export-ydpi="42.851223" />
  <circle
     cx="74.7826"
     cy="22.6087"
     r="4.34783"
     fill="#00B050"
     id="circle90"
     inkscape:export-xdpi="42.851223"
     inkscape:export-ydpi="42.851223" />
  <path
     d="M117.391 99.1305L81.7391 134.783"
     stroke="#FF2D2D"
     stroke-width="2"
     id="path92"
     inkscape:export-xdpi="42.851223"
     inkscape:export-ydpi="42.851223" />
  <circle
     cx="134.783"
     cy="80"
     r="30.4348"
     fill="#FF2D2D"
     id="circle94"
     inkscape:export-xdpi="42.851223"
     inkscape:export-ydpi="42.851223" />
  <path
     d="M148.094 89.2235C147.266 89.2235 146.497 89.4728 145.853 89.8975L139.709 83.724C139.657 83.6719 139.599 83.6313 139.538 83.5963C140.298 82.5945 140.75 81.3471 140.75 79.9961C140.75 78.0719 139.834 76.359 138.416 75.2668L140.946 70.8205C141.362 70.9582 141.806 71.0356 142.267 71.0356C144.591 71.0356 146.481 69.1456 146.481 66.8221C146.481 64.4989 144.591 62.6087 142.267 62.6087C139.944 62.6087 138.054 64.4992 138.054 66.8224C138.054 68.0999 138.627 69.2438 139.528 70.0171L137 74.4579C136.314 74.1824 135.566 74.0288 134.783 74.0288C133.434 74.0288 132.189 74.4793 131.188 75.2367C131.176 75.2223 131.166 75.2064 131.153 75.1931L127.691 71.7142C127.878 71.3453 127.986 70.9295 127.986 70.4882C127.986 68.9884 126.766 67.7682 125.266 67.7682C123.767 67.7682 122.547 68.9887 122.547 70.4882C122.547 71.9878 123.767 73.2079 125.266 73.2079C125.732 73.2079 126.17 73.09 126.554 72.8832L129.997 76.3434C130.011 76.357 130.027 76.3668 130.041 76.3793C129.273 77.3835 128.815 78.6374 128.815 79.9964C128.815 81.1915 129.17 82.3046 129.777 83.2387L124.086 88.1723C123.388 87.6586 122.53 87.3508 121.599 87.3508C119.279 87.3508 117.391 89.2383 117.391 91.5584C117.391 93.8785 119.279 95.766 121.599 95.766C123.919 95.766 125.807 93.8785 125.807 91.5584C125.807 90.7584 125.578 90.0121 125.189 89.3743L130.843 84.4725C131.895 85.3994 133.274 85.9634 134.783 85.9634C136.156 85.9634 137.422 85.4957 138.431 84.7129C138.465 84.77 138.504 84.8248 138.553 84.874L144.697 91.0472C144.266 91.6939 144.013 92.4694 144.013 93.3034C144.013 95.5531 145.844 97.3838 148.094 97.3838C150.344 97.3838 152.174 95.5534 152.174 93.3034C152.174 91.0539 150.344 89.2235 148.094 89.2235Z"
     fill="white"
     id="path96"
     inkscape:export-xdpi="42.851223"
     inkscape:export-ydpi="42.851223" />
  <path
     d="M86.087 134.783C86.087 137.184 84.1404 139.13 81.7392 139.13C79.3379 139.13 77.3914 137.184 77.3914 134.783C77.3914 132.381 79.3379 130.435 81.7392 130.435C84.1404 130.435 86.087 132.381 86.087 134.783Z"
     fill="#FF2D2D"
     id="path98"
     inkscape:export-xdpi="42.851223"
     inkscape:export-ydpi="42.851223" />
  <circle
     cx="239.13"
     cy="393.043"
     r="29.4348"
     fill="white"
     stroke="#00B050"
     stroke-width="2"
     id="circle100"
     inkscape:export-xdpi="42.851223"
     inkscape:export-ydpi="42.851223" />
  <path
     d="M152.174 310.435L217.391 371.304"
     stroke="#00B050"
     stroke-width="2"
     id="path102"
     inkscape:export-xdpi="42.851223"
     inkscape:export-ydpi="42.851223" />
  <circle
     cx="344.348"
     cy="80"
     r="29.4348"
     fill="white"
     stroke="#00B050"
     stroke-width="2"
     id="circle104"
     inkscape:export-xdpi="42.851223"
     inkscape:export-ydpi="42.851223" />
  <circle
     cx="552.174"
     cy="80"
     r="29.4348"
     fill="white"
     stroke="#00B050"
     stroke-width="2"
     id="circle106"
     inkscape:export-xdpi="42.851223"
     inkscape:export-ydpi="42.851223" />
  <path
     d="M522.174 80.4348H469.13H375.217"
     stroke="#00B050"
     stroke-width="2"
     id="path108"
     inkscape:export-xdpi="42.851223"
     inkscape:export-ydpi="42.851223" />
  <circle
     cx="656.522"
     cy="80"
     r="30.4348"
     fill="#00B050"
     id="circle110"
     inkscape:export-xdpi="42.851223"
     inkscape:export-ydpi="42.851223" />
  <path
     d="M661.434 73.3785H651.61C650.667 73.3785 649.9 74.1457 649.9 75.0883V84.9118C649.9 85.8544 650.667 86.6216 651.61 86.6216H661.434C662.376 86.6216 663.143 85.8544 663.143 84.9118V75.0883C663.143 74.1457 662.376 73.3785 661.434 73.3785Z"
     fill="white"
     id="path112"
     inkscape:export-xdpi="42.851223"
     inkscape:export-ydpi="42.851223" />
  <path
     d="M672.894 76.3804C673.457 76.3804 673.913 75.9239 673.913 75.3613C673.913 74.7985 673.457 74.3423 672.894 74.3423H669.547V71.7414H672.894C673.457 71.7414 673.913 71.2852 673.913 70.7224C673.913 70.1595 673.457 69.7034 672.894 69.7034H669.405C669.052 68.4551 668.067 67.47 666.819 67.1165V63.6277C666.819 63.0649 666.362 62.6087 665.8 62.6087C665.237 62.6087 664.781 63.0649 664.781 63.6277V66.9746H662.18V63.6277C662.18 63.0649 661.723 62.6087 661.161 62.6087C660.598 62.6087 660.142 63.0649 660.142 63.6277V66.9746H657.541V63.6277C657.541 63.0649 657.085 62.6087 656.522 62.6087C655.959 62.6087 655.503 63.0649 655.503 63.6277V66.9746H652.902V63.6277C652.902 63.0649 652.446 62.6087 651.883 62.6087C651.32 62.6087 650.864 63.0649 650.864 63.6277V66.9746H648.263V63.6277C648.263 63.0649 647.807 62.6087 647.244 62.6087C646.681 62.6087 646.225 63.0649 646.225 63.6277V67.1165C644.977 67.47 643.992 68.4548 643.638 69.7034H640.149C639.587 69.7034 639.13 70.1595 639.13 70.7224C639.13 71.2852 639.587 71.7414 640.149 71.7414H643.497V74.342H640.149C639.587 74.342 639.13 74.7985 639.13 75.3611C639.13 75.9239 639.587 76.3801 640.149 76.3801H643.497V78.981H640.149C639.587 78.981 639.13 79.4372 639.13 80C639.13 80.5629 639.587 81.019 640.149 81.019H643.497V83.6197H640.149C639.587 83.6197 639.13 84.0761 639.13 84.6387C639.13 85.2015 639.587 85.6577 640.149 85.6577H643.497V88.2586H640.149C639.587 88.2586 639.13 88.7148 639.13 89.2776C639.13 89.8405 639.587 90.2966 640.149 90.2966H643.638C643.992 91.5449 644.976 92.53 646.225 92.8835V96.3723C646.225 96.9351 646.681 97.3913 647.244 97.3913C647.807 97.3913 648.263 96.9351 648.263 96.3723V93.0254H650.864V96.3723C650.864 96.9351 651.32 97.3913 651.883 97.3913C652.446 97.3913 652.902 96.9351 652.902 96.3723V93.0254H655.503V96.3723C655.503 96.9351 655.959 97.3913 656.522 97.3913C657.085 97.3913 657.541 96.9351 657.541 96.3723V93.0254H660.142V96.3723C660.142 96.9351 660.598 97.3913 661.161 97.3913C661.723 97.3913 662.18 96.9351 662.18 96.3723V93.0254H664.78V96.3723C664.78 96.9351 665.236 97.3913 665.799 97.3913C666.362 97.3913 666.818 96.9351 666.818 96.3723V92.8835C668.067 92.53 669.052 91.5452 669.405 90.2966H672.894C673.457 90.2966 673.913 89.8405 673.913 89.2776C673.913 88.7148 673.457 88.2586 672.894 88.2586H669.547V85.658H672.894C673.457 85.658 673.913 85.2015 673.913 84.6389C673.913 84.0761 673.457 83.6199 672.894 83.6199H669.547V81.019H672.894C673.457 81.019 673.913 80.5629 673.913 80C673.913 79.4372 673.457 78.981 672.894 78.981H669.547V76.3804H672.894ZM665.181 84.9117C665.181 86.9782 663.5 88.6596 661.433 88.6596H651.61C649.543 88.6596 647.862 86.9782 647.862 84.9117V75.0883C647.862 73.0218 649.543 71.3404 651.61 71.3404H661.433C663.5 71.3404 665.181 73.0218 665.181 75.0883V84.9117Z"
     fill="white"
     id="path114"
     inkscape:export-xdpi="42.851223"
     inkscape:export-ydpi="42.851223" />
  <path
     d="M640.435 58.2609L588.261 4.34784"
     stroke="#00B050"
     stroke-width="2"
     id="path116"
     inkscape:export-xdpi="42.851223"
     inkscape:export-ydpi="42.851223" />
  <circle
     r="29.4348"
     transform="matrix(0 1 1 0 969.565 184.348)"
     fill="white"
     stroke="#00B050"
     stroke-width="2"
     id="circle118"
     inkscape:export-xdpi="42.851223"
     inkscape:export-ydpi="42.851223" />
  <path
     d="M937.377 95.5426L957.263 75.6571C963.562 69.3575 974.334 73.8191 974.334 82.7282V154.673"
     stroke="#00B050"
     stroke-width="2"
     id="path120"
     inkscape:export-xdpi="42.851223"
     inkscape:export-ydpi="42.851223" />
  <circle
     cx="865.217"
     cy="80"
     r="29.4348"
     fill="white"
     stroke="#FF2D2D"
     stroke-width="2"
     id="circle122"
     inkscape:export-xdpi="42.851223"
     inkscape:export-ydpi="42.851223" />
  <path
     d="M866.087 50.4348V29.1305C866.087 23.6077 870.564 19.1305 876.087 19.1305H952.174"
     stroke="#FF2D2D"
     stroke-width="2"
     id="path124"
     inkscape:export-xdpi="42.851223"
     inkscape:export-ydpi="42.851223" />
  <circle
     r="30.4348"
     transform="matrix(0 1 1 0 865.217 184.348)"
     fill="#00B050"
     id="circle126"
     inkscape:export-xdpi="42.851223"
     inkscape:export-ydpi="42.851223" />
  <path
     d="M878.988 194.023L870.595 179.921V172.883C871.778 172.461 872.647 171.34 872.647 170.014C872.647 168.328 871.275 166.957 869.589 166.957H861.437C859.752 166.957 858.38 168.328 858.38 170.014C858.38 171.34 859.235 172.461 860.418 172.883V179.921L852.039 194.023C850.001 197.419 852.443 201.739 856.408 201.739H874.619C878.581 201.739 881.027 197.422 878.988 194.023ZM859.399 193.587C858.836 193.587 858.38 193.131 858.38 192.568C858.38 192.005 858.836 191.549 859.399 191.549C859.962 191.549 860.418 192.005 860.418 192.568C860.418 193.131 859.962 193.587 859.399 193.587ZM865.513 197.663C864.951 197.663 864.494 197.207 864.494 196.644C864.494 196.081 864.951 195.625 865.513 195.625C866.076 195.625 866.532 196.081 866.532 196.644C866.532 197.207 866.076 197.663 865.513 197.663ZM871.628 195.625C871.065 195.625 870.608 195.169 870.608 194.606C870.608 194.043 871.065 193.587 871.628 193.587C872.19 193.587 872.647 194.043 872.647 194.606C872.647 195.169 872.19 195.625 871.628 195.625ZM870.608 189.375C868.718 189.375 866.314 187.961 866.193 187.596C866.088 187.502 863.585 185.299 860.418 185.299C860.117 185.299 859.807 185.373 859.501 185.412L862.297 180.728C862.393 180.57 862.443 180.389 862.443 180.204V173.071H868.57V175.109H867.551C866.988 175.109 866.532 175.564 866.532 176.128C866.532 176.691 866.988 177.147 867.551 177.147H868.57V179.185H867.551C866.988 179.185 866.532 179.641 866.532 180.204C866.532 180.767 866.988 181.223 867.551 181.223H869.013L873.448 188.615C872.692 188.999 871.694 189.375 870.608 189.375Z"
     fill="white"
     id="path128"
     inkscape:export-xdpi="42.851223"
     inkscape:export-ydpi="42.851223" />
  <path
     d="M865.652 213.043V258.696"
     stroke="#00B050"
     stroke-width="2"
     id="path130"
     inkscape:export-xdpi="42.851223"
     inkscape:export-ydpi="42.851223" />
  <circle
     cx="760.87"
     cy="80"
     r="29.4348"
     fill="white"
     stroke="#00B050"
     stroke-width="2"
     id="circle132"
     inkscape:export-xdpi="42.851223"
     inkscape:export-ydpi="42.851223" />
  <circle
     cx="721.739"
     cy="325.217"
     r="4.34783"
     fill="#FF2D2D"
     id="circle134"
     inkscape:export-xdpi="42.851223"
     inkscape:export-ydpi="42.851223" />
  <circle
     cx="609.13"
     cy="443.043"
     r="5.02174"
     stroke="#FF2D2D"
     stroke-width="3"
     id="circle136"
     inkscape:export-xdpi="42.851223"
     inkscape:export-ydpi="42.851223" />
  <circle
     cx="51.7391"
     cy="448.261"
     r="5.02174"
     stroke="#FF2D2D"
     stroke-width="3"
     id="circle138"
     inkscape:export-xdpi="42.851223"
     inkscape:export-ydpi="42.851223" />
  <circle
     cx="932.593"
     cy="100.054"
     r="5.02174"
     stroke="#00B050"
     stroke-width="3"
     id="circle140"
     inkscape:export-xdpi="42.851223"
     inkscape:export-ydpi="42.851223" />
  <circle
     cx="343.478"
     cy="450.435"
     r="4.34783"
     fill="#00B050"
     id="circle142"
     inkscape:export-xdpi="42.851223"
     inkscape:export-ydpi="42.851223" />
  <circle
     cx="587.826"
     cy="4.34783"
     r="4.34783"
     fill="#00B050"
     id="circle144"
     inkscape:export-xdpi="42.851223"
     inkscape:export-ydpi="42.851223" />
  <circle
     cx="656.522"
     cy="393.043"
     r="29.4348"
     fill="white"
     stroke="#FF2D2D"
     stroke-width="2"
     id="circle146"
     inkscape:export-xdpi="42.851223"
     inkscape:export-ydpi="42.851223" />
  <path
     d="M676.522 371.304L722.174 325.652"
     stroke="#FF2D2D"
     stroke-width="2"
     id="path148"
     inkscape:export-xdpi="42.851223"
     inkscape:export-ydpi="42.851223" />
  <path
     d="M685.56 81.1982L730.784 81.1982"
     stroke="#00B050"
     stroke-width="2"
     id="path150"
     inkscape:export-xdpi="42.851223"
     inkscape:export-ydpi="42.851223" />
  <path
     d="M969.565 213.913L969.565 262.609M970 363.478L969.869 317.124"
     stroke="#00B050"
     stroke-width="2"
     id="path152"
     inkscape:export-xdpi="42.851223"
     inkscape:export-ydpi="42.851223" />
  <path
     d="M884.348 310.87L946.522 373.043"
     stroke="#00B050"
     stroke-width="2"
     id="path154"
     inkscape:export-xdpi="42.851223"
     inkscape:export-ydpi="42.851223" />
  <path
     d="M51.3043 375.652L118.261 308.696"
     stroke="#00B050"
     stroke-width="2"
     id="path156"
     inkscape:export-xdpi="42.851223"
     inkscape:export-ydpi="42.851223" />
  <path
     d="m 429.68203,197.1465 -6.9095,15.20096 h -17.60625 l -4.709,10.49229 h 17.60682 l -6.9095,15.20096 h -17.60682 l -5.98832,13.10254 h 17.60682 l -6.90949,15.20073 h -41.7132 l 31.42524,-69.19748 z"
     fill="#ff2d2d"
     id="path92-8"
     style="fill:url(#linearGradient1059);fill-opacity:1;fill-rule:nonzero;stroke-width:0.575744"
     inkscape:export-xdpi="42.851223"
     inkscape:export-ydpi="42.851223" />
  <path
     d="m 449.23371,247.9188 -9.92927,11.00384 c -2.49067,2.73018 -5.10109,4.65776 -7.8307,5.78392 -2.69564,1.09162 -6.48345,1.63742 -11.3623,1.63742 h -15.71319 l 6.90949,-15.20073 h 3.37847 c 2.21776,0 4.02617,-0.27296 5.42523,-0.81888 1.39848,-0.58006 2.83209,-1.63781 4.29907,-3.17327 l 18.32305,-18.6302 -10.33862,-31.3744 h 22.62211 l 4.50404,14.07497 7.77945,-8.80325 c 1.63799,-1.87666 3.46367,-3.22445 5.47648,-4.04336 2.04734,-0.8189 4.58982,-1.22836 7.6263,-1.22836 h 18.32304 l -6.9095,15.20096 h -1.89363 c -2.11585,0 -3.88972,0.29006 -5.32274,0.87012 -1.39906,0.58005 -2.83208,1.62077 -4.29966,3.12209 l -14.27959,14.38207 11.72041,35.62224 h -22.62212 z"
     fill="#ff2d2d"
     id="path94"
     style="fill:url(#linearGradient1061);fill-opacity:1;fill-rule:nonzero;stroke-width:0.575744"
     inkscape:export-xdpi="42.851223"
     inkscape:export-ydpi="42.851223" />
  <path
     d="m 514.89958,242.95416 -10.69675,23.38982 h -24.10639 l 31.42524,-69.19748 h 44.52859 c 3.07045,0 5.4759,0.68242 7.21637,2.04727 1.77445,1.36485 2.66167,3.24151 2.66167,5.62998 0,0.61421 -0.10248,1.27953 -0.30744,1.9961 -0.17043,0.71651 -0.4606,1.48428 -0.86996,2.30316 l -11.00418,24.51608 c -1.638,3.7192 -3.44641,6.21009 -5.42524,7.47252 -1.97883,1.22841 -5.34002,1.84255 -10.083,1.84255 z m 6.91007,-15.20095 h 10.59426 l 4.70901,-10.79934 c 0.10248,-0.27303 0.17041,-0.52888 0.20439,-0.76776 0.0685,-0.27296 0.10248,-0.52888 0.10248,-0.76769 0,-0.88717 -0.34142,-1.62079 -1.02367,-2.20084 -0.68226,-0.58006 -1.56949,-0.87012 -2.66109,-0.87012 h -5.01588 z"
     fill="#ff2d2d"
     id="path96-0"
     style="mix-blend-mode:multiply;fill:url(#linearGradient1063);fill-opacity:1;fill-rule:nonzero;stroke-width:0.575744"
     inkscape:export-xdpi="42.851223"
     inkscape:export-ydpi="42.851223" />
  <path
     d="m 607.0272,216.95387 c 0.17041,-0.44361 0.2729,-0.76776 0.30687,-0.97249 0.0686,-0.20474 0.10248,-0.39237 0.10248,-0.56296 0,-0.9213 -0.35812,-1.65492 -1.07492,-2.20084 -0.71622,-0.58006 -1.68922,-0.87012 -2.91729,-0.87012 -1.56948,0 -2.93456,0.37538 -4.09469,1.12604 -1.12616,0.75065 -2.03007,1.84255 -2.71233,3.27563 l -13.30716,29.58304 c -0.13703,0.27296 -0.23893,0.56301 -0.30745,0.87011 -0.0679,0.30706 -0.10248,0.64829 -0.10248,1.02362 0,0.92125 0.37539,1.63782 1.12615,2.14966 0.75078,0.51178 1.84238,0.76769 3.27541,0.76769 1.39905,0 2.59373,-0.35829 3.58286,-1.0748 1.02367,-0.71657 1.89362,-1.8255 2.61041,-3.32682 z m 27.63799,-7.83086 -21.34282,47.13855 c -1.70592,3.82121 -3.83847,6.46559 -6.39766,7.93317 -2.55918,1.43303 -6.58535,2.14925 -12.0791,2.14925 H 564.1366 c -3.03648,0 -5.42524,-0.66499 -7.16513,-1.9961 -1.77445,-1.36452 -2.66167,-3.2069 -2.66167,-5.52714 0,-0.58035 0.10249,-1.22864 0.30687,-1.94487 0.20497,-0.75076 0.51184,-1.57005 0.92177,-2.45698 l 21.29158,-47.18956 c 1.7399,-3.78747 3.87246,-6.4148 6.39765,-7.88202 2.52464,-1.4672 6.53413,-2.20081 12.02729,-2.20081 h 30.70959 c 3.07045,0 5.49317,0.68242 7.26762,2.04727 1.80841,1.36485 2.71233,3.20739 2.71233,5.52761 0,0.58007 -0.10191,1.24546 -0.30687,1.9961 -0.20497,0.71658 -0.52911,1.51842 -0.97244,2.40553 z"
     fill="#ff2d2d"
     id="path98-5"
     style="fill:url(#linearGradient1065);fill-opacity:1;fill-rule:nonzero;stroke-width:0.575744"
     inkscape:export-xdpi="42.851223"
     inkscape:export-ydpi="42.851223" />
  <path
     d="m 680.47309,212.34746 -24.56756,53.99652 h -24.10639 l 24.56698,-53.99652 h -17.8112 l 6.9095,-15.20096 h 57.63079 l -6.9095,15.20096 z"
     fill="#ff2d2d"
     id="path100"
     style="fill:url(#linearGradient1067);fill-opacity:1;fill-rule:nonzero;stroke-width:0.575744"
     inkscape:export-xdpi="42.851223"
     inkscape:export-ydpi="42.851223" />
  <path
     d="m 750.1824,197.1465 -6.9095,15.20096 h -17.60681 l -4.70843,10.49229 h 17.60624 l -6.90951,15.20096 h -17.60623 l -5.98832,13.10254 h 17.60625 l -6.9095,15.20073 H 677.04396 L 708.4692,197.1465 Z"
     fill="#ff2d2d"
     id="path102-7"
     style="fill:url(#linearGradient1069);fill-opacity:1;fill-rule:nonzero;stroke-width:0.575744"
     inkscape:export-xdpi="42.851223"
     inkscape:export-ydpi="42.851223" />
  <path
     d="m 791.02563,251.14325 -2.30356,5.11831 c -1.70593,3.85575 -3.78723,6.50014 -6.24391,7.93317 -2.45669,1.43303 -6.51741,2.14925 -12.18158,2.14925 h -24.97633 c -3.03705,0 -5.42524,-0.66499 -7.16571,-1.9961 -1.77386,-1.36452 -2.66109,-3.2069 -2.66109,-5.52714 0,-0.68284 0.10191,-1.38236 0.30687,-2.09859 0.17043,-0.75077 0.44391,-1.51824 0.81871,-2.30326 l 21.39406,-47.18956 c 1.70593,-3.82162 3.78782,-6.44893 6.24452,-7.88202 2.49066,-1.4672 6.55081,-2.20081 12.18101,-2.20081 h 23.39013 c 3.10499,0 5.52772,0.68242 7.26761,2.04727 1.74048,1.36485 2.61043,3.24151 2.61043,5.62998 0,0.58007 -0.10249,1.24545 -0.30687,1.9961 -0.20498,0.71651 -0.49515,1.48428 -0.87054,2.30316 l -1.48425,3.22445 h -22.21278 c -1.73986,0 -3.17289,0.35828 -4.29905,1.07486 -1.12614,0.71651 -2.03007,1.82544 -2.7129,3.32681 l -13.30716,29.78777 c -0.13646,0.27296 -0.23893,0.54592 -0.30688,0.81888 -0.0686,0.27302 -0.10248,0.56302 -0.10248,0.87012 0,0.85303 0.32415,1.55249 0.97244,2.09847 0.64828,0.54592 1.50154,0.81888 2.55917,0.81888 z"
     fill="#ff2d2d"
     id="path104"
     style="fill:url(#linearGradient1071);fill-opacity:1;fill-rule:nonzero;stroke-width:0.575744"
     inkscape:export-xdpi="42.851223"
     inkscape:export-ydpi="42.851223" />
  <path
     d="m 235.52578,233.12725 19.60256,-30.29957 c 1.12605,-1.97903 2.71267,-3.41212 4.7599,-4.29928 2.04729,-0.92126 4.79405,-1.3819 8.24029,-1.3819 h 20.31903 l -6.90951,15.20096 h -1.79114 c -2.55918,0 -4.65776,0.40946 -6.29574,1.2284 -1.60346,0.7848 -3.10499,2.1667 -4.50348,4.1457 l -36.44164,48.62242 h -14.58681 l -6.70482,-69.19748 h 23.03182 z"
     fill="#ff2d2d"
     id="path106"
     style="fill:url(#linearGradient1073);fill-opacity:1;fill-rule:nonzero;stroke-width:0.575744"
     inkscape:export-xdpi="42.851223"
     inkscape:export-ydpi="42.851223" />
  <path
     d="m 316.95608,197.1465 -31.42582,69.19748 H 261.4237 l 31.42542,-69.19748 z"
     fill="#ff2d2d"
     id="path108-4"
     style="fill:url(#linearGradient1075);fill-opacity:1;fill-rule:nonzero;stroke-width:0.575744"
     inkscape:export-xdpi="42.851223"
     inkscape:export-ydpi="42.851223" />
  <path
     d="m 348.70979,197.33994 -31.42582,69.19747 h -24.10655 l 31.42541,-69.19747 z"
     fill="#ff2d2d"
     id="path108-6"
     style="fill:url(#linearGradient6353);fill-opacity:1;fill-rule:nonzero;stroke-width:0.575744"
     inkscape:export-xdpi="42.851223"
     inkscape:export-ydpi="42.851223" />
</svg>
